<?xml version="1.0" encoding="UTF-8" standalone="no"?>
<!-- Created with Inkscape (http://www.inkscape.org/) -->

<svg
   xmlns:dc="http://purl.org/dc/elements/1.1/"
   xmlns:cc="http://creativecommons.org/ns#"
   xmlns:rdf="http://www.w3.org/1999/02/22-rdf-syntax-ns#"
   xmlns:svg="http://www.w3.org/2000/svg"
   xmlns="http://www.w3.org/2000/svg"
   xmlns:sodipodi="http://sodipodi.sourceforge.net/DTD/sodipodi-0.dtd"
   xmlns:inkscape="http://www.inkscape.org/namespaces/inkscape"
   version="1.1"
   id="svg2"
   xml:space="preserve"
   width="1346.6667"
   height="284"
   viewBox="0 0 1346.6667 284"
   sodipodi:docname="Fig3.svg"
   inkscape:version="0.92.1 r"><metadata
     id="metadata8"><rdf:RDF><cc:Work
         rdf:about=""><dc:format>image/svg+xml</dc:format><dc:type
           rdf:resource="http://purl.org/dc/dcmitype/StillImage" /><dc:title></dc:title></cc:Work></rdf:RDF></metadata><defs
     id="defs6" /><sodipodi:namedview
     pagecolor="#ffffff"
     bordercolor="#666666"
     borderopacity="1"
     objecttolerance="10"
     gridtolerance="10"
     guidetolerance="10"
     inkscape:pageopacity="0"
     inkscape:pageshadow="2"
     inkscape:window-width="1920"
     inkscape:window-height="1016"
     id="namedview4"
     showgrid="false"
     inkscape:zoom="0.96824616"
     inkscape:cx="853.60167"
     inkscape:cy="100.31557"
     inkscape:window-x="0"
     inkscape:window-y="27"
     inkscape:window-maximized="1"
     inkscape:current-layer="g10" /><g
     id="g10"
     inkscape:groupmode="layer"
     inkscape:label="ink_ext_XXXXXX"
     transform="matrix(1.3333333,0,0,-1.3333333,0,284)"><path
       inkscape:connector-curvature="0"
       id="path14"
       style="fill:#b2a060;fill-opacity:1;fill-rule:nonzero;stroke:none;stroke-width:0.1"
       d="m 38.5352,70.4961 c 0,0 -5.4571,-6.1602 -8.2852,-7.777 -2.8281,-1.6179 48.8012,-26.282 88.516,-25.141 39.714,1.1438 78.57,-10.5703 91.855,-10.5703 13.285,0 38.285,-11.8558 62.57,-11.4297 24.289,0.4297 22.43,2.5739 37,3.2891 14.575,0.7109 17.145,-6.2891 32,-6.4301 14.86,-0.1441 5.145,1.4301 21,1.7149 15.86,0.2851 32,-12.14419 57.145,-12.43012 25.144,-0.28477 34.144,8 54.144,7.71523 20,-0.28516 21.426,-2.56992 39,-3.28516 17.571,-0.71484 37.711,-4.28476 55.711,-3.71484 18,0.5707 61.575,7.57069 85.715,7.14102 24.145,-0.42618 75.477,-6.77305 100.285,-4.14102 18.332,1.9457 62.727,6.67579 101.184,20.05509 40.672,14.1476 75.102,37.0777 80.391,42.6598 0.14,1.4261 -0.93,1.5 -10.645,1.641 -9.715,0.1441 -14.355,2.2148 -16.5,3.2148 -2.141,1 -64.285,-9 -64.285,-9 L 59.648,63.4262 Z" /><path
       inkscape:connector-curvature="0"
       id="path16"
       style="fill:none;stroke:#000000;stroke-width:0.80000001;stroke-linecap:butt;stroke-linejoin:miter;stroke-miterlimit:4;stroke-dasharray:none;stroke-opacity:1"
       d="m 38.5352,70.4961 c 0,0 -5.4571,-6.1602 -8.2852,-7.777 -2.8281,-1.6179 48.8012,-26.282 88.516,-25.141 39.714,1.1449 78.57,-10.5703 91.855,-10.5703 13.285,0 38.285,-11.8558 62.57,-11.4297 24.289,0.4297 22.43,2.5739 37,3.2891 14.575,0.7109 17.145,-6.2891 32,-6.4301 14.86,-0.1441 5.145,1.4301 21,1.7149 15.86,0.2851 32,-12.14419 57.145,-12.42895 25.144,-0.28594 34.144,8 54.144,7.71406 20,-0.28516 21.426,-2.56992 39,-3.28516 17.571,-0.71484 37.711,-4.28476 55.711,-3.71484 18,0.5707 61.575,7.57069 85.715,7.14102 24.145,-0.42618 75.477,-6.77305 100.285,-4.14102 18.332,1.9457 62.727,6.67579 101.184,20.05509 40.672,14.1476 75.102,37.0777 80.391,42.6598 0.14,1.4261 -0.93,1.5 -10.645,1.641 -9.715,0.1441 -14.355,2.2148 -16.5,3.2148 -2.141,1 -64.285,-9 -64.285,-9 L 59.648,63.4262 Z" /><path
       inkscape:connector-curvature="0"
       id="path18"
       style="fill:#babf4f;fill-opacity:1;fill-rule:nonzero;stroke:none;stroke-width:0.1"
       d="m 122.883,68.375 c 0,0 -7.172,-2.223 -12.528,-2.3199 -5.351,-0.102 -16.7691,7.3711 -22.828,7.3711 -6.0622,0 -10.8079,-3.3321 -12.7258,-3.3321 -1.9223,0 -2.9301,1.011 -5.0512,1.109 -2.125,0.102 -5.6602,-1.6133 -7.8828,-1.6133 -2.2192,0 -8.6832,4.9493 -12.625,5.05 -3.941,0.1024 -8.8902,-1.2136 -11.1133,-4.0429 -2.223,-2.8278 22.4262,-15.4528 34.2461,-17.777 11.816,-2.3238 49.801,-5.859 58.59,-6.3629 8.785,-0.5082 50,-6.973 53.84,-4.5468 3.84,2.4257 -18.891,16.6679 -18.891,16.6679 z" /><path
       inkscape:connector-curvature="0"
       id="path20"
       style="fill:none;stroke:#000000;stroke-width:0.80000001;stroke-linecap:butt;stroke-linejoin:miter;stroke-miterlimit:4;stroke-dasharray:none;stroke-opacity:1"
       d="m 122.883,68.375 c 0,0 -7.172,-2.223 -12.528,-2.3199 -5.351,-0.102 -16.7691,7.3711 -22.828,7.3711 -6.0622,0 -10.8079,-3.3321 -12.7258,-3.3321 -1.9223,0 -2.9301,1.011 -5.0512,1.109 -2.125,0.102 -5.6602,-1.6133 -7.8828,-1.6133 -2.2192,0 -8.6832,4.9493 -12.625,5.05 -3.941,0.1024 -8.8902,-1.2136 -11.1133,-4.0429 -2.223,-2.8278 22.4262,-15.4528 34.2461,-17.777 11.816,-2.3238 49.801,-5.859 58.59,-6.3629 8.785,-0.5082 50,-6.973 53.84,-4.5468 3.84,2.4257 -18.891,16.6679 -18.891,16.6679 z" /><path
       inkscape:connector-curvature="0"
       id="path22"
       style="fill:#a58da9;fill-opacity:1;fill-rule:nonzero;stroke:none;stroke-width:0.1"
       d="m 617.621,21.152 c -0.57,-0.1442 -37.141,9 -38.57,11 -1.43,2 -5.571,1.2851 -1.43,7.5699 4.145,6.2859 31.43,23.8562 40.43,23.8562 9,0 93.57,-22.7109 96.855,-25.4261 3.285,-2.7149 -1,-4 3.285,-7.4301 4.289,-3.4289 9.176,-6.8938 18.715,-8.8547 4.86,-1 4,-4.5742 -5.715,-5.2891 -9.711,-0.7109 -69.867,12.902 -84.711,12.2891 -20.714,-0.8594 -20.289,-7.8594 -28.859,-7.7152 z" /><path
       inkscape:connector-curvature="0"
       id="path24"
       style="fill:none;stroke:#000000;stroke-width:0.80000001;stroke-linecap:butt;stroke-linejoin:miter;stroke-miterlimit:4;stroke-dasharray:none;stroke-opacity:1"
       d="m 617.621,21.152 c -0.57,-0.1442 -37.141,9 -38.57,11 -1.43,2 -5.571,1.2851 -1.43,7.571 4.145,6.2848 31.43,23.8551 40.43,23.8551 9,0 93.57,-22.7109 96.855,-25.4261 3.285,-2.7149 -1,-4 3.285,-7.429 4.289,-3.43 9.176,-6.8949 18.715,-8.8558 4.86,-1 4,-4.5742 -5.715,-5.2891 -9.711,-0.7109 -69.867,12.902 -84.711,12.2891 -20.714,-0.8594 -20.289,-7.8594 -28.859,-7.7152 z" /><path
       inkscape:connector-curvature="0"
       id="path26"
       style="fill:#a58da9;fill-opacity:1;fill-rule:nonzero;stroke:none;stroke-width:0.1"
       d="m 587.219,29.0941 c 4.176,-1.2929 16.293,-10.5203 1.746,-11.325 -14.543,-0.8082 -40.809,-1.8203 -49.293,-0.2031 -8.484,1.6168 -26.668,7.6762 -26.668,7.6762 l -36.367,26.0629 -3.231,24.4449 17.778,6.4648 26.668,-8.8867 47.882,-11.7191 c 0,0 3.977,-13.7149 6.457,-18.0578 2.477,-4.3442 1.739,-6.2703 3.844,-8.8133 2.11,-2.543 7.008,-4.3508 11.184,-5.6438 z" /><path
       inkscape:connector-curvature="0"
       id="path28"
       style="fill:none;stroke:#000000;stroke-width:0.80000001;stroke-linecap:butt;stroke-linejoin:miter;stroke-miterlimit:4;stroke-dasharray:none;stroke-opacity:1"
       d="m 587.219,29.0941 c 4.176,-1.2929 16.293,-10.5203 1.746,-11.325 -14.543,-0.8082 -40.809,-1.8203 -49.293,-0.2031 -8.484,1.6168 -26.668,7.6762 -26.668,7.6762 l -36.367,26.0629 -3.231,24.4449 17.778,6.4648 26.668,-8.8867 47.882,-11.7191 c 0,0 3.977,-13.7149 6.457,-18.0578 2.477,-4.3442 1.739,-6.2703 3.844,-8.8133 2.11,-2.543 7.008,-4.3508 11.184,-5.6438 z" /><path
       inkscape:connector-curvature="0"
       id="path30"
       style="fill:#bda0c1;fill-opacity:1;fill-rule:nonzero;stroke:none;stroke-width:0.1"
       d="m 122.191,68.152 c 5.215,7.0699 12.289,2 16.86,2 4.57,0 9.89,7.7582 13.07,8.0699 3.645,0.3562 1.289,-1.468 3.66,-1.6207 2.375,-0.1524 1.903,2.3828 4.074,2.3828 2.172,0 3.016,-2.3711 4.985,-2.1168 1.969,0.25 6.73,4.7418 10.117,4.4879 3.383,-0.25 5.199,-5.3512 14.395,-5.7071 9.191,-0.3511 11.714,8.586 15.503,8.6372 3.79,0.0507 2.829,-0.9063 4.649,-0.9063 1.816,0 2.93,3.027 6.008,3.3832 3.082,0.3508 16.367,-14.3949 20.054,-14.3949 0.907,0 2.856,1.0629 4.766,1.1797 5.859,0.3633 13.211,0.6211 14.547,1.9531 1.766,1.7691 5.082,5.8551 8.82,5.8051 3.735,-0.0473 4.848,-2.4731 8.231,-2.6762 5.882,0.7262 14.144,-8.5348 17.375,-8.4848 3.234,0.0508 9.242,3.8911 13.285,3.9887 1.894,0.05 6.008,2.0582 8.89,5.0391 3.258,3.3633 3.118,7.7422 8.18,7.7422 2.836,0 7.676,-3.0903 12.981,-3.234 5.304,-0.141 10.91,7.6789 14.547,7.8281 3.636,0.152 12.929,-8.9891 23.281,-9.0391 6.32,-0.032 40.722,6.109 48.011,6.109 7.286,0 60.141,-19.5703 60.141,-19.5703 0,0 20.254,-40.4726 35.285,-43.7148 -0.535,-5.809 -10.613,-6.6758 -14.855,-6.4258 -4.242,0.2457 -19.969,2.5078 -30.008,7.9648 -9.523,5.1758 -14.805,13.5192 -16.563,13.461 -1.761,-0.059 2.243,-9.0282 -6.32,-15.52 -6.836,-5.1789 -24.539,-7.5621 -35.394,-8.0511 -10.86,-0.4879 -25.739,5.2 -39.934,14.1371 -13.316,8.3832 -24.055,21.1922 -26.496,21.1488 -2.441,-0.043 -0.414,-6.6207 -1.219,-11.825 -0.762,-4.918 -3.238,-9.484 -9.277,-9.2297 -4.883,0.2028 -15.305,3.1719 -24.168,7.586 -11.637,5.7968 -25.16,13.2461 -26.906,13.1828 -1.75,-0.0617 -3.86,-2.0778 -1.973,-3.8239 3.5,-3.2378 13.426,-7.648 13.398,-11.746 -0.023,-4.1008 -12.015,-7.5391 -19.711,-7.7149 -7.699,-0.175 -23.406,1.4219 -33.281,6.1449 -11.172,5.3399 -15.906,13.4532 -20.578,13.57 -4.668,0.1128 -11.418,-7.5348 -22.141,-7.4372 -10.718,0.0973 -15.316,1.5903 -21.511,5.3903 -7.324,4.4918 -10.742,11.282 -13.489,11.332 -2.75,0.0508 -6.593,-3.043 -15.41,-2.773 -8.816,0.266 -25.879,13.4879 -25.879,13.4879 z" /><path
       inkscape:connector-curvature="0"
       id="path32"
       style="fill:none;stroke:#000000;stroke-width:0.80000001;stroke-linecap:butt;stroke-linejoin:miter;stroke-miterlimit:4;stroke-dasharray:none;stroke-opacity:1"
       d="m 122.191,68.152 c 5.215,7.071 12.289,2 16.86,2 4.57,0 9.89,7.7582 13.07,8.071 3.645,0.3551 1.289,-1.4691 3.66,-1.6218 2.375,-0.1524 1.903,2.3828 4.074,2.3828 2.172,0 3.016,-2.3711 4.985,-2.1168 1.969,0.25 6.73,4.7418 10.117,4.4879 3.383,-0.25 5.199,-5.3512 14.395,-5.7071 9.191,-0.3511 11.714,8.586 15.503,8.6372 3.79,0.0507 2.829,-0.9063 4.649,-0.9063 1.816,0 2.93,3.027 6.008,3.3832 3.082,0.3508 16.367,-14.3949 20.054,-14.3949 0.907,0 2.856,1.0629 4.766,1.1797 5.859,0.3633 13.211,0.6211 14.547,1.9531 1.766,1.7691 5.082,5.8551 8.82,5.8051 3.735,-0.0473 4.848,-2.4731 8.231,-2.6762 5.882,0.7262 14.144,-8.5348 17.375,-8.4848 3.234,0.0508 9.242,3.8911 13.285,3.9887 1.894,0.05 6.008,2.0582 8.89,5.0391 3.258,3.3633 3.118,7.7422 8.18,7.7422 2.836,0 7.676,-3.0903 12.981,-3.234 5.304,-0.141 10.91,7.6789 14.547,7.8277 3.636,0.1524 12.929,-8.9887 23.281,-9.0387 6.32,-0.032 40.722,6.109 48.011,6.109 7.286,0 60.141,-19.5703 60.141,-19.5703 0,0 20.254,-40.4726 35.285,-43.7148 -0.535,-5.809 -10.613,-6.6758 -14.855,-6.4258 -4.242,0.2457 -19.969,2.5078 -30.008,7.9648 -9.523,5.1758 -14.805,13.5192 -16.563,13.461 -1.761,-0.059 2.243,-9.0282 -6.32,-15.52 -6.836,-5.1789 -24.539,-7.5621 -35.394,-8.05 -10.86,-0.489 -25.739,5.1989 -39.934,14.136 -13.316,8.3832 -24.055,21.1922 -26.496,21.1488 -2.441,-0.043 -0.414,-6.6207 -1.219,-11.825 -0.762,-4.918 -3.238,-9.484 -9.277,-9.2297 -4.883,0.2028 -15.305,3.1719 -24.168,7.586 -11.637,5.7968 -25.16,13.2461 -26.906,13.1839 -1.75,-0.0628 -3.86,-2.0789 -1.973,-3.825 3.5,-3.2378 13.426,-7.648 13.398,-11.746 -0.023,-4.1008 -12.015,-7.5391 -19.711,-7.7149 -7.699,-0.175 -23.406,1.4219 -33.281,6.1449 -11.172,5.3399 -15.906,13.4532 -20.578,13.57 -4.668,0.1128 -11.418,-7.5348 -22.141,-7.4372 -10.718,0.0973 -15.316,1.5903 -21.511,5.3903 -7.324,4.4918 -10.742,11.282 -13.489,11.332 -2.75,0.0508 -6.593,-3.043 -15.41,-2.773 -8.816,0.266 -25.879,13.4879 -25.879,13.4879 z" /><path
       inkscape:connector-curvature="0"
       id="path34"
       style="fill:#d5adc6;fill-opacity:1;fill-rule:nonzero;stroke:none;stroke-width:0.1"
       d="m 569.766,83.152 c 17.629,0.266 17,13.7152 25.285,14.141 8.285,0.4289 1.285,-5.2848 9.855,-5.2848 8.574,0 4.145,-5.8562 10.86,-5.8562 6.714,0 13.57,8.4261 21.57,8.4261 8,0 19,-5.141 25.57,-5.141 6.574,0 10.86,-7.4293 21,-7.5699 10.145,-0.1453 56.715,-13 82.285,-13.1453 25.575,-0.1438 66.86,6.4301 74.715,6.2859 4.203,-0.075 14.215,3.2113 22.989,3.25 7.585,0.0313 12.539,6.05 16.726,6.0352 5.363,-0.016 12.781,-9.0899 21.637,-8.375 8.859,0.7148 10.508,-4.4809 6.793,-6.3399 C 905.336,67.7219 884.422,53.1602 852.906,42.0078 821.391,30.8551 802.039,26.8629 761.281,26.1949 714.941,25.5969 649.141,58.777 622.535,58.957 595.934,59.1371 590.102,33.6051 568.562,33.484 c -21.535,-0.125 -17.949,26.184 -17.949,26.184 0.106,10.4961 1.883,14.582 7.578,21.7691 0,0 -6.054,1.4457 11.575,1.7149 z" /><path
       inkscape:connector-curvature="0"
       id="path36"
       style="fill:none;stroke:#000000;stroke-width:0.80000001;stroke-linecap:butt;stroke-linejoin:miter;stroke-miterlimit:4;stroke-dasharray:none;stroke-opacity:1"
       d="m 569.766,83.152 c 17.629,0.266 17,13.7152 25.285,14.141 8.285,0.43 1.285,-5.2852 9.855,-5.2852 8.574,0 4.145,-5.8558 10.86,-5.8558 6.714,0 13.57,8.4261 21.57,8.4261 8,0 19,-5.141 25.57,-5.141 6.574,0 10.86,-7.4293 21,-7.5699 10.145,-0.1442 56.715,-13 82.285,-13.1442 25.575,-0.1449 66.86,6.429 74.715,6.2848 4.203,-0.075 14.215,3.2113 22.989,3.25 7.585,0.0313 12.539,6.05 16.726,6.0352 5.363,-0.016 12.781,-9.0899 21.637,-8.375 8.859,0.7148 10.508,-4.4809 6.793,-6.3399 C 905.336,67.723 884.422,53.1602 852.906,42.0078 821.391,30.8551 802.039,26.8629 761.281,26.1949 714.941,25.5969 649.141,58.777 622.535,58.957 595.934,59.1371 590.102,33.6051 568.562,33.484 c -21.535,-0.125 -17.949,26.184 -17.949,26.184 0.106,10.4961 1.883,14.582 7.578,21.7691 0,0 -6.054,1.4457 11.575,1.7149 z" /><path
       inkscape:connector-curvature="0"
       id="path38"
       style="fill:#a8987e;fill-opacity:1;fill-rule:nonzero;stroke:none;stroke-width:0.1"
       d="m 240.336,73.5781 c 0,0 1.355,2.5739 4.43,2.6438 3.07,0.0711 9,-0.5 9.714,-0.6438 0.711,-0.141 7.856,-13.5703 11.356,-16.7109 3.5,-3.1453 -10.215,0.8547 -13.645,3.4258 -3.425,2.5742 -11.855,11.2851 -11.855,11.2851 z" /><path
       inkscape:connector-curvature="0"
       id="path40"
       style="fill:none;stroke:#000000;stroke-width:0.80000001;stroke-linecap:butt;stroke-linejoin:miter;stroke-miterlimit:4;stroke-dasharray:none;stroke-opacity:1"
       d="m 240.336,73.5781 c 0,0 1.355,2.5739 4.43,2.6449 3.07,0.07 9,-0.5 9.714,-0.6449 0.711,-0.141 7.856,-13.5703 11.356,-16.7109 3.5,-3.1442 -10.215,0.8558 -13.645,3.4258 -3.425,2.5742 -11.855,11.2851 -11.855,11.2851 z" /><path
       inkscape:connector-curvature="0"
       id="path42"
       style="fill:#a8987e;fill-opacity:1;fill-rule:nonzero;stroke:none;stroke-width:0.1"
       d="m 376.531,83.125 c 0,0 2.625,6.3629 6.164,6.2621 3.535,-0.1019 7.676,2.2219 12.422,2.2219 4.75,0 5.254,-2.4219 9.293,-2.5231 4.043,-0.1019 5.559,3.027 11.617,2.7262 6.063,-0.3039 4.649,-1.6172 7.578,-1.8199 2.93,-0.1992 9.696,6.9726 13.333,7.0738 3.636,0.0981 5.355,-2.8281 9.292,-2.8281 3.942,0 14.145,-8.3867 17.981,-8.1828 3.84,0.2031 8.184,1.109 10.406,0.9097 2.223,-0.2027 8.688,3.0274 11.918,3.0274 3.235,0 29.297,-11.0082 32.527,-11.0082 3.235,0 6.668,3.5351 10.204,3.7379 3.535,0.2 8.789,-3.636 11.922,-3.5391 3.128,0.1024 11.414,7.6801 15.859,7.4774 4.445,-0.2032 7.769,-1.793 12.719,-3.5082 -4.121,-1.3899 -9.325,-3.4098 -13.844,-12.4719 -4.52,-9.0629 -7.949,-24.766 -18.106,-24.684 -10.156,0.0777 -16.828,6.109 -24.242,13.8828 -7.836,8.2152 -15.531,14.5109 -24.168,14.707 -8.636,0.1911 -8.898,-7.8988 -18.851,-7.8711 -9.953,0.0231 -17.973,8.093 -29.649,13.7223 -8.328,4.016 -11.84,5.934 -22.375,5.9418 -10.539,0.0082 -12.476,-11.8598 -21.761,-12.5898 -10.532,-0.8282 -20.239,9.3359 -20.239,9.3359 z" /><path
       inkscape:connector-curvature="0"
       id="path44"
       style="fill:none;stroke:#000000;stroke-width:0.80000001;stroke-linecap:butt;stroke-linejoin:miter;stroke-miterlimit:4;stroke-dasharray:none;stroke-opacity:1"
       d="m 376.531,83.125 c 0,0 2.625,6.3629 6.164,6.2621 3.535,-0.1019 7.676,2.2219 12.422,2.2219 4.75,0 5.254,-2.4219 9.293,-2.5231 4.043,-0.1019 5.559,3.027 11.617,2.7262 6.063,-0.3043 4.649,-1.6172 7.578,-1.8199 2.93,-0.1992 9.696,6.9726 13.333,7.0738 3.636,0.0981 5.355,-2.8281 9.292,-2.8281 3.942,0 14.145,-8.3867 17.981,-8.1828 3.84,0.2027 8.184,1.109 10.406,0.9097 2.223,-0.2027 8.688,3.0274 11.918,3.0274 3.235,0 29.297,-11.0082 32.527,-11.0082 3.235,0 6.668,3.5351 10.204,3.739 3.535,0.1989 8.789,-3.6371 11.922,-3.5402 3.128,0.1024 11.414,7.6801 15.859,7.4774 4.445,-0.2032 7.769,-1.793 12.719,-3.5082 -4.121,-1.3899 -9.325,-3.4098 -13.844,-12.4719 -4.52,-9.0629 -7.949,-24.766 -18.106,-24.684 -10.156,0.0777 -16.828,6.109 -24.242,13.8828 -7.836,8.2152 -15.531,14.5109 -24.168,14.707 -8.636,0.1911 -8.898,-7.8988 -18.851,-7.8711 -9.953,0.0231 -17.973,8.093 -29.649,13.7223 -8.328,4.016 -11.84,5.934 -22.375,5.9418 -10.539,0.0082 -12.476,-11.8598 -21.761,-12.5898 -10.532,-0.8282 -20.239,9.3359 -20.239,9.3359 z" /><path
       inkscape:connector-curvature="0"
       id="path46"
       style="fill:#a8987e;fill-opacity:1;fill-rule:nonzero;stroke:none;stroke-width:0.1"
       d="m 683.012,82.1129 c 10.687,-0.3238 12.527,3.1332 19.394,3.234 6.871,0.1019 24.75,-8.7891 42.528,-8.7891 17.777,0 18.285,6.9692 30.406,6.8723 12.121,-0.102 3.637,-0.2039 9.496,-0.102 5.859,0.102 2.324,-3.4383 10.102,-3.5351 7.777,-0.102 9.191,-0.2032 12.624,-0.102 3.438,0.102 32.731,-4.043 30.911,-4.8512 -9.696,-5.8558 -63.114,-11.4929 -79.801,-11.0078 -17.477,0.5039 -56.145,8.9102 -75.66,18.2809 z" /><path
       inkscape:connector-curvature="0"
       id="path48"
       style="fill:none;stroke:#000000;stroke-width:0.80000001;stroke-linecap:butt;stroke-linejoin:miter;stroke-miterlimit:4;stroke-dasharray:none;stroke-opacity:1"
       d="m 683.012,82.1129 c 10.687,-0.3238 12.527,3.1332 19.394,3.234 6.871,0.1019 24.75,-8.7891 42.528,-8.7891 17.777,0 18.285,6.9692 30.406,6.8723 12.121,-0.102 3.637,-0.2039 9.496,-0.102 5.859,0.102 2.324,-3.4383 10.102,-3.5351 7.777,-0.102 9.191,-0.2032 12.624,-0.102 3.438,0.102 32.731,-4.043 30.911,-4.8512 -9.696,-5.8558 -63.114,-11.4929 -79.801,-11.0078 -17.477,0.5039 -56.145,8.9102 -75.66,18.2809 z" /><g
       id="g50"><text
         id="text66"
         style="font-style:italic;font-variant:normal;font-weight:bold;font-size:14px;font-family:Arial;-inkscape-font-specification:Arial-BoldItalicMT;writing-mode:lr-tb;fill:#000000;fill-opacity:1;fill-rule:nonzero;stroke:none"
         transform="matrix(1,0,0,-1,24.2492,17.9133)"><tspan
           id="tspan52"
           sodipodi:role="line"
           y="0"
           x="0 10.108 14 18.662001 24.108 31.892 40.445999 48.23 52.122002 59.905998 67.690002 72.393997 76.286003">Ultrahelvetic</tspan><tspan
           id="tspan54"
           sodipodi:role="line"
           y="-131.08701"
           x="-13.2379 -2.3459001 6.2080998 11.6541 20.208099 24.1001 32.654099 40.438099 44.330101 48.222099 56.7761 64.560097 73.114098 81.668098">Gurnigel nappe</tspan><tspan
           id="tspan56"
           sodipodi:role="line"
           y="-148.03349"
           x="202.1281 211.46609 215.35809 223.14211 230.9261 235.5881 239.4801 247.2641">Plastic </tspan><tspan
           id="tspan58"
           sodipodi:role="line"
           y="-130.53349"
           x="142.96989 152.30791 157.75391 165.5379 173.3219 177.2139 185.7679 193.5519 201.33591 205.22791 216.93208 224.71609 233.27008 237.16209 244.94609 253.50009 261.28409 265.17609 273.7301 281.5141 290.11026 298.66428">Préalpes Médiane nappe</tspan><tspan
           id="tspan60"
           sodipodi:role="line"
           y="-148.6179"
           x="424.37891 434.48691 438.37891 446.93289 450.82489 459.37891 467.1629">Rigide </tspan><tspan
           id="tspan62"
           sodipodi:role="line"
           y="-131.1179"
           x="367.9277 377.26569 382.7117 390.4957 398.27969 402.17169 410.72571 418.5097 422.4017 434.06369 441.88989 450.44388 454.33588 462.11987 470.67389 478.45789 482.34988 490.9039 498.6879 507.24188 515.83807">Prealps Médiane nappe</tspan><tspan
           id="tspan64"
           sodipodi:role="line"
           y="-131.08704"
           x="550.00671 560.11469 565.56073 573.34473 581.12872 589.68268 597.46667 601.3587 609.91272 617.69672 626.29291 634.84686 667.4809 677.58887 686.14288 694.6969 702.4809 707.92688 711.81891 721.15686 726.60291 734.3869 742.21289 746.10486 754.65887 762.44287 770.22687 774.1189 782.67291 790.45691 799.01086 807.56488">Brèche nappeUpper Prealpes nappe</tspan></text>
</g><path
       inkscape:connector-curvature="0"
       id="path68"
       style="fill:none;stroke:#000000;stroke-width:0.80000001;stroke-linecap:butt;stroke-linejoin:miter;stroke-miterlimit:4;stroke-dasharray:none;stroke-opacity:1"
       d="m 116.809,21.0191 c 14.039,1.168 56.496,-1.4882 76.195,14.9571" /><path
       inkscape:connector-curvature="0"
       id="path70"
       style="fill:#000000;fill-opacity:1;fill-rule:evenodd;stroke:none;stroke-width:0.1"
       d="m 190.547,33.9262 -0.203,-2.2543 3.273,4.8203 -5.324,-2.3633 z" /><path
       inkscape:connector-curvature="0"
       id="path72"
       style="fill:none;stroke:#000000;stroke-width:0.40000001;stroke-linecap:butt;stroke-linejoin:miter;stroke-miterlimit:4;stroke-dasharray:none;stroke-opacity:1"
       d="m 190.547,33.9258 -0.203,-2.2543 3.272,4.8203 -5.323,-2.3625 z" /><path
       inkscape:connector-curvature="0"
       id="path74"
       style="fill:none;stroke:#000000;stroke-width:0.80000001;stroke-linecap:butt;stroke-linejoin:miter;stroke-miterlimit:4;stroke-dasharray:none;stroke-opacity:1"
       d="m 462.727,138.058 c -2.832,-20.523 15.894,-69.0502 44.031,-82.6709" /><path
       inkscape:connector-curvature="0"
       id="path76"
       style="fill:#000000;fill-opacity:1;fill-rule:evenodd;stroke:none;stroke-width:0.1"
       d="m 503.875,56.7809 -2.137,-0.7457 5.739,-1 -4.344,3.8828 z" /><path
       inkscape:connector-curvature="0"
       id="path78"
       style="fill:none;stroke:#000000;stroke-width:0.40000001;stroke-linecap:butt;stroke-linejoin:miter;stroke-miterlimit:4;stroke-dasharray:none;stroke-opacity:1"
       d="m 503.875,56.7805 -2.137,-0.7453 5.739,-1 -4.344,3.8824 z" /><path
       inkscape:connector-curvature="0"
       id="path80"
       style="fill:none;stroke:#000000;stroke-width:0.80000001;stroke-linecap:butt;stroke-linejoin:miter;stroke-miterlimit:4;stroke-dasharray:4.8, 4.8;stroke-dashoffset:0;stroke-opacity:1"
       d="M 2.71484,82.8012 C 8.41406,78.3398 19.1289,70.1559 30.25,62.7191" /><path
       inkscape:connector-curvature="0"
       id="path82"
       style="fill:none;stroke:#000000;stroke-width:0.80000001;stroke-linecap:butt;stroke-linejoin:miter;stroke-miterlimit:4;stroke-dasharray:4.8, 4.8;stroke-dashoffset:0;stroke-opacity:1"
       d="m 97.082,88.1762 c 0,0 16.449,-12.9301 25.801,-19.8012" /><path
       inkscape:connector-curvature="0"
       id="path84"
       style="fill:none;stroke:#000000;stroke-width:0.80000001;stroke-linecap:butt;stroke-linejoin:miter;stroke-miterlimit:4;stroke-dasharray:4.8, 4.8;stroke-dashoffset:0;stroke-opacity:1"
       d="m 209.812,99.082 c 14.145,-1.6129 30.52,-25.5351 30.52,-25.5351" /><path
       inkscape:connector-curvature="0"
       id="path86"
       style="fill:none;stroke:#000000;stroke-width:0.80000001;stroke-linecap:butt;stroke-linejoin:miter;stroke-miterlimit:4;stroke-dasharray:4.8, 4.8;stroke-dashoffset:0;stroke-opacity:1"
       d="M 263.148,96.2539 C 252.34,96.7621 249.172,84.8629 254.879,75.5" /><path
       inkscape:connector-curvature="0"
       id="path88"
       style="fill:none;stroke:#000000;stroke-width:0.80000001;stroke-linecap:butt;stroke-linejoin:miter;stroke-miterlimit:4;stroke-dasharray:4.8, 4.8;stroke-dashoffset:0;stroke-opacity:1"
       d="m 354.75,96.652 c 0,0 11.52,-4.0309 21.781,-13.527" /><path
       inkscape:connector-curvature="0"
       id="path90"
       style="fill:none;stroke:#000000;stroke-width:0.80000001;stroke-linecap:butt;stroke-linejoin:miter;stroke-miterlimit:4;stroke-dasharray:4.8, 4.8;stroke-dashoffset:0;stroke-opacity:1"
       d="m 585.91,100.894 c 0.328,-6.3389 -7.527,-10.242 -16.144,-17.742" /><path
       inkscape:connector-curvature="0"
       id="path92"
       style="fill:none;stroke:#000000;stroke-width:0.80000001;stroke-linecap:butt;stroke-linejoin:miter;stroke-miterlimit:4;stroke-dasharray:4.8, 4.8;stroke-dashoffset:0;stroke-opacity:1"
       d="m 641.957,105.551 c 0,0 10.891,-3.637 20.789,-9.3049 9.375,-5.3672 17.688,-12.7313 21.16,-14.3789" /><path
       inkscape:connector-curvature="0"
       id="path94"
       style="fill:none;stroke:#000000;stroke-width:0.80000001;stroke-linecap:butt;stroke-linejoin:miter;stroke-miterlimit:4;stroke-dasharray:4.8, 4.8;stroke-dashoffset:0;stroke-opacity:1"
       d="M 884.059,96.652 C 880.77,94.223 838.473,74.8398 838.473,74.8398" /><path
       inkscape:connector-curvature="0"
       id="path96"
       style="fill:none;stroke:#000000;stroke-width:0.80000001;stroke-linecap:butt;stroke-linejoin:miter;stroke-miterlimit:4;stroke-dasharray:4.8, 4.8;stroke-dashoffset:0;stroke-opacity:1"
       d="m 935.77,90.0781 c 0,0 -18.5,-14.5 -24.286,-18.2851" /><path
       inkscape:connector-curvature="0"
       id="path98"
       style="fill:none;stroke:#000000;stroke-width:0.80000001;stroke-linecap:butt;stroke-linejoin:miter;stroke-miterlimit:4;stroke-dasharray:4.8, 4.8;stroke-dashoffset:0;stroke-opacity:1"
       d="M 964.199,93.0781 C 962.344,90.9371 942.328,72.793 936.766,68.152" /><path
       inkscape:connector-curvature="0"
       id="path100"
       style="fill:none;stroke:#000000;stroke-width:0.80000001;stroke-linecap:butt;stroke-linejoin:miter;stroke-miterlimit:4;stroke-dasharray:4.8, 4.8;stroke-dashoffset:0;stroke-opacity:1"
       d="M 10.7148,91.5781 C 16.4102,87.1211 31.8398,74.648 38.3199,69.7109" /><g
       id="g102"><text
         id="text108"
         style="font-variant:normal;font-weight:normal;font-size:20px;font-family:Arial;-inkscape-font-specification:ArialMT;writing-mode:lr-tb;fill:#000000;fill-opacity:1;fill-rule:nonzero;stroke:none"
         transform="matrix(1,0,0,-1,-1.52344,197.834)"><tspan
           id="tspan104"
           sodipodi:role="line"
           y="0"
           x="0 14.44">NW</tspan><tspan
           id="tspan106"
           sodipodi:role="line"
           y="-0.390625"
           x="944.86798 958.20801">SE</tspan></text>
</g><path
       inkscape:connector-curvature="0"
       id="path110"
       style="fill:none;stroke:#000000;stroke-width:0.80000001;stroke-linecap:butt;stroke-linejoin:miter;stroke-miterlimit:4;stroke-dasharray:none;stroke-opacity:1"
       d="M 968.938,130.574 V 37.3199 h -64.856" /><path
       inkscape:connector-curvature="0"
       id="path112"
       style="fill:none;stroke:#000000;stroke-width:0.80000001;stroke-linecap:butt;stroke-linejoin:miter;stroke-miterlimit:4;stroke-dasharray:none;stroke-opacity:1"
       d="m 973.113,64.9059 h -4.152" /><path
       inkscape:connector-curvature="0"
       id="path114"
       style="fill:none;stroke:#000000;stroke-width:0.80000001;stroke-linecap:butt;stroke-linejoin:miter;stroke-miterlimit:4;stroke-dasharray:none;stroke-opacity:1"
       d="m 973.074,93.7031 h -4.152" /><path
       inkscape:connector-curvature="0"
       id="path116"
       style="fill:none;stroke:#000000;stroke-width:0.80000001;stroke-linecap:butt;stroke-linejoin:miter;stroke-miterlimit:4;stroke-dasharray:none;stroke-opacity:1"
       d="m 973.066,120.902 h -4.152" /><path
       inkscape:connector-curvature="0"
       id="path118"
       style="fill:none;stroke:#000000;stroke-width:0.80000001;stroke-linecap:butt;stroke-linejoin:miter;stroke-miterlimit:4;stroke-dasharray:none;stroke-opacity:1"
       d="m 968.938,32.7809 v 4.539" /><path
       inkscape:connector-curvature="0"
       id="path120"
       style="fill:none;stroke:#000000;stroke-width:0.80000001;stroke-linecap:butt;stroke-linejoin:miter;stroke-miterlimit:4;stroke-dasharray:none;stroke-opacity:1"
       d="m 968.938,32.7809 v 4.539" /><path
       inkscape:connector-curvature="0"
       id="path122"
       style="fill:none;stroke:#000000;stroke-width:0.80000001;stroke-linecap:butt;stroke-linejoin:miter;stroke-miterlimit:4;stroke-dasharray:none;stroke-opacity:1"
       d="m 941.352,32.7809 v 4.539" /><path
       inkscape:connector-curvature="0"
       id="path124"
       style="fill:none;stroke:#000000;stroke-width:0.80000001;stroke-linecap:butt;stroke-linejoin:miter;stroke-miterlimit:4;stroke-dasharray:none;stroke-opacity:1"
       d="m 912.555,32.7809 v 4.539" /><path
       inkscape:connector-curvature="0"
       id="path126"
       style="fill:none;stroke:#000000;stroke-width:0.80000001;stroke-linecap:butt;stroke-linejoin:miter;stroke-miterlimit:4;stroke-dasharray:none;stroke-opacity:1"
       d="m 973.113,37.3199 h -4.152" /><g
       id="g128"><text
         id="text140"
         style="font-variant:normal;font-weight:normal;font-size:10px;font-family:Arial;-inkscape-font-specification:ArialMT;writing-mode:lr-tb;fill:#000000;fill-opacity:1;fill-rule:nonzero;stroke:none"
         transform="matrix(1,0,0,-1,976.315,33.6793)"><tspan
           id="tspan130"
           y="0"
           x="0">0</tspan><tspan
           id="tspan132"
           sodipodi:role="line"
           y="-27.5863"
           x="0 5.5599999 11.12 16.68">1000</tspan><tspan
           id="tspan134"
           sodipodi:role="line"
           y="-56.4902"
           x="0 5.5599999 11.12 16.68">2000</tspan><tspan
           id="tspan136"
           sodipodi:role="line"
           y="-83.690201"
           x="0 5.5599999 11.12 16.68 22.24 25.02">3000 m</tspan><tspan
           id="tspan138"
           sodipodi:role="line"
           y="11.9789"
           x="-74.803902 -69.243896 -63.683899 -58.123901 -10.1338">20000</tspan></text>
<text
         id="text144"
         style="font-style:italic;font-variant:normal;font-size:12px;font-family:Arial;-inkscape-font-specification:Arial-ItalicMT;writing-mode:lr-tb;fill:#000000;fill-opacity:1;fill-rule:nonzero;stroke:none"
         transform="matrix(1,0,0,-1,726.5761,109.4082)"><tspan
           id="tspan142"
           sodipodi:role="line"
           y="0"
           x="0 6.6719999 13.344 19.344 22.68 32.015999 38.688 42.023998">Les Gets</tspan></text>
</g><path
       inkscape:connector-curvature="0"
       id="path146"
       style="fill:none;stroke:#000000;stroke-width:0.80000001;stroke-linecap:butt;stroke-linejoin:miter;stroke-miterlimit:4;stroke-dasharray:none;stroke-opacity:1"
       d="M 750.863,106.574 V 81.0781" /><path
       inkscape:connector-curvature="0"
       id="path148"
       style="fill:none;stroke:#000000;stroke-width:0.80000001;stroke-linecap:butt;stroke-linejoin:miter;stroke-miterlimit:4;stroke-dasharray:none;stroke-opacity:1"
       d="M 596.438,106.574 V 98.8828" /><g
       id="g150"><text
         id="text156"
         style="font-style:italic;font-variant:normal;font-size:12px;font-family:Arial;-inkscape-font-specification:Arial-ItalicMT;writing-mode:lr-tb;fill:#000000;fill-opacity:1;fill-rule:nonzero;stroke:none"
         transform="matrix(1,0,0,-1,564.525,109.408)"><tspan
           id="tspan152"
           sodipodi:role="line"
           y="0"
           x="0 8.6639996 15.336 21.336 24.672001 31.344 33.636002 41.639999 48.347939 51.683937 58.355938">Roc d'Enfer</tspan><tspan
           id="tspan154"
           sodipodi:role="line"
           y="-0.180859"
           x="-234.173 -224.83701 -218.16499 -212.16499 -205.493 -346.88599 -337.54999 -330.87799 -324.20599 -320.87 -317.534 -310.862 -308.198">OuzonQueffaix</tspan></text>
</g><path
       inkscape:connector-curvature="0"
       id="path158"
       style="fill:none;stroke:#000000;stroke-width:0.80000001;stroke-linecap:butt;stroke-linejoin:miter;stroke-miterlimit:4;stroke-dasharray:none;stroke-opacity:1"
       d="M 240.273,106.574 V 78.5781" /><path
       inkscape:connector-curvature="0"
       id="path160"
       style="fill:none;stroke:#000000;stroke-width:0.80000001;stroke-linecap:butt;stroke-linejoin:miter;stroke-miterlimit:4;stroke-dasharray:none;stroke-opacity:1"
       d="M 347.867,106.574 V 94.3199" /><g
       id="g162"><text
         id="text166"
         style="font-variant:normal;font-weight:normal;font-size:20px;font-family:Arial;-inkscape-font-specification:ArialMT;writing-mode:lr-tb;fill:#000000;fill-opacity:1;fill-rule:nonzero;stroke:none"
         transform="matrix(1,0,0,-1,331.274,195.25)"><tspan
           id="tspan164"
           sodipodi:role="line"
           y="0"
           x="0 24.040001 44.779919 65.499924 86.239838 100.27984 121.01976 135.05975 154.65976 169.81976 192.77968 209.0596 229.7796 250.51952 264.55951 285.29944">Chablais Prealps</tspan></text>
</g></g></svg>